<svg width="66" height="64" viewBox="0 0 66 64" fill="none" xmlns="http://www.w3.org/2000/svg">
<path d="M22.0754 51.5327C22.0754 51.7974 21.7694 52.0091 21.3835 52.0091C20.9444 52.0488 20.6383 51.8371 20.6383 51.5327C20.6383 51.268 20.9444 51.0563 21.3302 51.0563C21.7294 51.0166 22.0754 51.2283 22.0754 51.5327ZM17.9371 50.9372C17.844 51.2019 18.1101 51.5062 18.5093 51.5856C18.8552 51.718 19.2544 51.5856 19.3343 51.321C19.4141 51.0563 19.1613 50.7519 18.7621 50.6328C18.4161 50.5402 18.0302 50.6725 17.9371 50.9372ZM23.8185 50.7122C23.4327 50.8048 23.1665 51.0563 23.2065 51.3607C23.2464 51.6253 23.5923 51.7974 23.9915 51.7047C24.3774 51.6121 24.6435 51.3607 24.6036 51.096C24.5637 50.8445 24.2044 50.6725 23.8185 50.7122ZM32.5742 0C14.1181 0 0 13.9353 0 32.2907C0 46.967 9.2879 59.526 22.5544 63.9461C24.2577 64.2505 24.8565 63.205 24.8565 62.3448C24.8565 61.5243 24.8165 56.9983 24.8165 54.2192C24.8165 54.2192 15.502 56.2043 13.546 50.2755C13.546 50.2755 12.029 46.4244 9.84677 45.4319C9.84677 45.4319 6.7996 43.3542 10.0597 43.3939C10.0597 43.3939 13.373 43.6585 15.196 46.8082C18.1101 51.9165 22.9936 50.4475 24.8964 49.5741C25.2024 47.4567 26.0673 45.9877 27.0254 45.1143C19.5871 44.2938 12.0823 43.2218 12.0823 30.4908C12.0823 26.8515 13.0935 25.0253 15.2226 22.6961C14.8766 21.8359 13.7456 18.2892 15.5685 13.7103C18.3496 12.8501 24.75 17.2834 24.75 17.2834C27.4113 16.5423 30.2722 16.1586 33.1065 16.1586C35.9407 16.1586 38.8016 16.5423 41.4629 17.2834C41.4629 17.2834 47.8633 12.8369 50.6444 13.7103C52.4673 18.3024 51.3363 21.8359 50.9903 22.6961C53.1194 25.0385 54.4234 26.8648 54.4234 30.4908C54.4234 43.2615 46.5859 44.2805 39.1476 45.1143C40.3718 46.1597 41.4097 48.1448 41.4097 51.2548C41.4097 55.7146 41.3698 61.2331 41.3698 62.3183C41.3698 63.1785 41.9819 64.224 43.6718 63.9196C56.9782 59.526 66 46.967 66 32.2907C66 13.9353 51.0302 0 32.5742 0ZM12.9339 45.6436C12.7609 45.776 12.8008 46.0803 13.027 46.3318C13.2399 46.5435 13.546 46.6362 13.719 46.4641C13.8919 46.3318 13.852 46.0274 13.6258 45.776C13.4129 45.5642 13.1069 45.4716 12.9339 45.6436ZM11.4968 44.5717C11.4036 44.7437 11.5367 44.9555 11.8028 45.0878C12.0157 45.2201 12.2819 45.1804 12.375 44.9952C12.4681 44.8231 12.3351 44.6114 12.069 44.479C11.8028 44.3996 11.5899 44.4393 11.4968 44.5717ZM15.8081 49.2829C15.5952 49.455 15.675 49.852 15.981 50.1034C16.2871 50.4078 16.673 50.4475 16.846 50.2358C17.019 50.0637 16.9391 49.6667 16.673 49.4153C16.3802 49.1109 15.981 49.0712 15.8081 49.2829ZM14.2911 47.3376C14.0782 47.4699 14.0782 47.814 14.2911 48.1184C14.504 48.4227 14.8633 48.5551 15.0363 48.4227C15.2492 48.2507 15.2492 47.9066 15.0363 47.6022C14.85 47.2979 14.504 47.1655 14.2911 47.3376Z" fill="#E4E0E1"/>
</svg>
