<svg width="66" height="66" viewBox="0 0 66 66" fill="none" xmlns="http://www.w3.org/2000/svg">
<path d="M33.0001 38.8008C36.197 38.8008 38.8138 36.1969 38.8138 32.9871C38.8138 31.7238 38.4013 30.5508 37.7181 29.5969C36.661 28.1402 34.9466 27.1734 33.013 27.1734C31.0794 27.1734 29.3649 28.1273 28.3079 29.5969C27.6247 30.5508 27.2122 31.7238 27.2122 32.9871C27.1993 36.1969 29.8032 38.8008 33.0001 38.8008Z" fill="#E4E0E1"/>
<path d="M45.6844 25.8973V21.0246V20.3027H44.9625L40.0898 20.3156L40.1156 25.9102L45.6844 25.8973Z" fill="#E4E0E1"/>
<path d="M42.0234 33C42.0234 37.9758 37.9758 42.0234 33 42.0234C28.0242 42.0234 23.9766 37.9758 23.9766 33C23.9766 31.8012 24.2215 30.6539 24.6469 29.6098H19.7227V43.1191C19.7227 44.8594 21.1406 46.2773 22.8809 46.2773H43.1191C44.8594 46.2773 46.2773 44.8594 46.2773 43.1191V29.6098H41.3531C41.7914 30.6539 42.0234 31.8012 42.0234 33Z" fill="#E4E0E1"/>
<path d="M33 0C14.7727 0 0 14.7727 0 33C0 51.2273 14.7727 66 33 66C51.2273 66 66 51.2273 66 33C66 14.7727 51.2273 0 33 0ZM49.5 29.6098V43.1191C49.5 46.6383 46.6383 49.5 43.1191 49.5H22.8809C19.3617 49.5 16.5 46.6383 16.5 43.1191V29.6098V22.868C16.5 19.3488 19.3617 16.4871 22.8809 16.4871H43.1191C46.6383 16.4871 49.5 19.3488 49.5 22.868V29.6098Z" fill="#E4E0E1"/>
</svg>
